<?xml version="1.0" standalone="no"?>
<!DOCTYPE svg PUBLIC "-//W3C//DTD SVG 20010904//EN"
 "http://www.w3.org/TR/2001/REC-SVG-20010904/DTD/svg10.dtd">
<svg version="1.0" xmlns="http://www.w3.org/2000/svg"
 width="512.000000pt" height="512.000000pt" viewBox="0 0 512.000000 512.000000"
 preserveAspectRatio="xMidYMid meet">
<metadata>
Created by potrace 1.14, written by Peter Selinger 2001-2017
</metadata>
<g transform="translate(0.000000,512.000000) scale(0.100000,-0.100000)"
fill="#000000" stroke="none">
<path d="M3789 4485 c-2 -2 -21 -6 -42 -9 -80 -13 -253 -83 -278 -112 -6 -8
-16 -14 -22 -14 -26 0 -165 -131 -223 -210 -98 -135 -177 -324 -199 -475 -3
-22 -8 -47 -11 -54 -24 -71 -24 -436 1 -611 14 -100 18 -138 18 -157 -3 -107
-5 -108 -158 -79 -150 28 -514 27 -700 -2 -130 -21 -162 -27 -193 -36 -9 -3
-28 -7 -42 -10 -38 -6 -208 -59 -360 -111 -158 -54 -317 -99 -450 -126 -111
-23 -117 -24 -270 -45 -63 -8 -272 -8 -350 1 -87 9 -210 38 -305 71 -88 30
-135 28 -167 -8 -51 -59 -47 -109 20 -223 42 -71 201 -311 230 -346 7 -8 46
-59 88 -114 42 -55 80 -102 83 -105 4 -3 19 -21 35 -40 133 -163 357 -382 565
-553 48 -39 170 -126 231 -164 260 -162 583 -272 907 -310 80 -10 477 -9 538
0 249 39 323 56 485 112 393 137 702 382 850 673 58 114 112 301 127 437 35
338 -46 632 -267 960 -64 94 -80 129 -86 179 -18 144 108 289 374 433 118 64
383 137 577 159 33 3 67 8 75 9 8 2 47 6 85 10 89 10 139 29 154 61 6 14 11
29 11 33 0 14 -34 48 -65 63 -26 13 -207 61 -285 75 -180 32 -305 111 -331
208 -55 207 -194 351 -399 415 -48 14 -240 26 -251 15z"/>
</g>
</svg>
